P3
# CREATOR: GIMP PNM Filter Version 1.1
2 2
255
255
0
0
0
255
0
0
0
255
126
126
126
